<?xml version="1.0" encoding="UTF-8" standalone="no"?>
<!DOCTYPE svg PUBLIC "-//W3C//DTD SVG 1.1//EN"
 "http://www.w3.org/Graphics/SVG/1.1/DTD/svg11.dtd">
<!-- Generated by graphviz version 3.0.0 (20220226.1711)
 -->
<!-- Pages: 1 -->
<svg width="626pt" height="260pt"
 viewBox="0.00 0.00 626.00 260.00" xmlns="http://www.w3.org/2000/svg" xmlns:xlink="http://www.w3.org/1999/xlink">
<g id="graph0" class="graph" transform="scale(1 1) rotate(0) translate(4 256)">
<polygon fill="white" stroke="transparent" points="-4,4 -4,-256 622,-256 622,4 -4,4"/>
<!-- [root] azurerm_network_security_group.nsg (expand) -->
<g id="node1" class="node">
<title>[root] azurerm_network_security_group.nsg (expand)</title>
<polygon fill="none" stroke="black" points="228,-108 0,-108 0,-72 228,-72 228,-108"/>
<text text-anchor="middle" x="114" y="-86.3" font-family="Times New Roman,serif" font-size="14.00">azurerm_network_security_group.nsg</text>
</g>
<!-- [root] provider[&quot;registry.terraform.io/hashicorp/azurerm&quot;] -->
<g id="node4" class="node">
<title>[root] provider[&quot;registry.terraform.io/hashicorp/azurerm&quot;]</title>
<polygon fill="none" stroke="black" points="332,-36 54.33,-18 332,0 609.67,-18 332,-36"/>
<text text-anchor="middle" x="332" y="-14.3" font-family="Times New Roman,serif" font-size="14.00">provider[&quot;registry.terraform.io/hashicorp/azurerm&quot;]</text>
</g>
<!-- [root] azurerm_network_security_group.nsg (expand)&#45;&gt;[root] provider[&quot;registry.terraform.io/hashicorp/azurerm&quot;] -->
<g id="edge1" class="edge">
<title>[root] azurerm_network_security_group.nsg (expand)&#45;&gt;[root] provider[&quot;registry.terraform.io/hashicorp/azurerm&quot;]</title>
<path fill="none" stroke="black" d="M167.05,-71.97C200.77,-61.14 244.3,-47.16 278.18,-36.28"/>
<polygon fill="black" stroke="black" points="279.45,-39.55 287.91,-33.16 277.31,-32.88 279.45,-39.55"/>
</g>
<!-- [root] azurerm_resource_group.rg (expand) -->
<g id="node2" class="node">
<title>[root] azurerm_resource_group.rg (expand)</title>
<polygon fill="none" stroke="black" points="418,-108 246,-108 246,-72 418,-72 418,-108"/>
<text text-anchor="middle" x="332" y="-86.3" font-family="Times New Roman,serif" font-size="14.00">azurerm_resource_group.rg</text>
</g>
<!-- [root] azurerm_resource_group.rg (expand)&#45;&gt;[root] provider[&quot;registry.terraform.io/hashicorp/azurerm&quot;] -->
<g id="edge2" class="edge">
<title>[root] azurerm_resource_group.rg (expand)&#45;&gt;[root] provider[&quot;registry.terraform.io/hashicorp/azurerm&quot;]</title>
<path fill="none" stroke="black" d="M332,-71.7C332,-63.98 332,-54.71 332,-46.11"/>
<polygon fill="black" stroke="black" points="335.5,-46.1 332,-36.1 328.5,-46.1 335.5,-46.1"/>
</g>
<!-- [root] azurerm_virtual_network.vnet (expand) -->
<g id="node3" class="node">
<title>[root] azurerm_virtual_network.vnet (expand)</title>
<polygon fill="none" stroke="black" points="618,-108 436,-108 436,-72 618,-72 618,-108"/>
<text text-anchor="middle" x="527" y="-86.3" font-family="Times New Roman,serif" font-size="14.00">azurerm_virtual_network.vnet</text>
</g>
<!-- [root] azurerm_virtual_network.vnet (expand)&#45;&gt;[root] provider[&quot;registry.terraform.io/hashicorp/azurerm&quot;] -->
<g id="edge3" class="edge">
<title>[root] azurerm_virtual_network.vnet (expand)&#45;&gt;[root] provider[&quot;registry.terraform.io/hashicorp/azurerm&quot;]</title>
<path fill="none" stroke="black" d="M479.3,-71.88C449.69,-61.25 411.71,-47.61 381.73,-36.85"/>
<polygon fill="black" stroke="black" points="382.89,-33.55 372.3,-33.47 380.53,-40.14 382.89,-33.55"/>
</g>
<!-- [root] provider[&quot;registry.terraform.io/hashicorp/azurerm&quot;] (close) -->
<g id="node5" class="node">
<title>[root] provider[&quot;registry.terraform.io/hashicorp/azurerm&quot;] (close)</title>
<ellipse fill="none" stroke="black" cx="332" cy="-162" rx="246.96" ry="18"/>
<text text-anchor="middle" x="332" y="-158.3" font-family="Times New Roman,serif" font-size="14.00">[root] provider[&quot;registry.terraform.io/hashicorp/azurerm&quot;] (close)</text>
</g>
<!-- [root] provider[&quot;registry.terraform.io/hashicorp/azurerm&quot;] (close)&#45;&gt;[root] azurerm_network_security_group.nsg (expand) -->
<g id="edge4" class="edge">
<title>[root] provider[&quot;registry.terraform.io/hashicorp/azurerm&quot;] (close)&#45;&gt;[root] azurerm_network_security_group.nsg (expand)</title>
<path fill="none" stroke="black" d="M280.06,-144.32C249.13,-134.39 209.67,-121.72 176.97,-111.22"/>
<polygon fill="black" stroke="black" points="177.65,-107.76 167.06,-108.04 175.51,-114.43 177.65,-107.76"/>
</g>
<!-- [root] provider[&quot;registry.terraform.io/hashicorp/azurerm&quot;] (close)&#45;&gt;[root] azurerm_resource_group.rg (expand) -->
<g id="edge5" class="edge">
<title>[root] provider[&quot;registry.terraform.io/hashicorp/azurerm&quot;] (close)&#45;&gt;[root] azurerm_resource_group.rg (expand)</title>
<path fill="none" stroke="black" d="M332,-143.7C332,-135.98 332,-126.71 332,-118.11"/>
<polygon fill="black" stroke="black" points="335.5,-118.1 332,-108.1 328.5,-118.1 335.5,-118.1"/>
</g>
<!-- [root] provider[&quot;registry.terraform.io/hashicorp/azurerm&quot;] (close)&#45;&gt;[root] azurerm_virtual_network.vnet (expand) -->
<g id="edge6" class="edge">
<title>[root] provider[&quot;registry.terraform.io/hashicorp/azurerm&quot;] (close)&#45;&gt;[root] azurerm_virtual_network.vnet (expand)</title>
<path fill="none" stroke="black" d="M378.71,-144.23C406.04,-134.42 440.76,-121.96 469.73,-111.56"/>
<polygon fill="black" stroke="black" points="471.09,-114.79 479.32,-108.12 468.72,-108.2 471.09,-114.79"/>
</g>
<!-- [root] root -->
<g id="node6" class="node">
<title>[root] root</title>
<ellipse fill="none" stroke="black" cx="332" cy="-234" rx="49.29" ry="18"/>
<text text-anchor="middle" x="332" y="-230.3" font-family="Times New Roman,serif" font-size="14.00">[root] root</text>
</g>
<!-- [root] root&#45;&gt;[root] provider[&quot;registry.terraform.io/hashicorp/azurerm&quot;] (close) -->
<g id="edge7" class="edge">
<title>[root] root&#45;&gt;[root] provider[&quot;registry.terraform.io/hashicorp/azurerm&quot;] (close)</title>
<path fill="none" stroke="black" d="M332,-215.7C332,-207.98 332,-198.71 332,-190.11"/>
<polygon fill="black" stroke="black" points="335.5,-190.1 332,-180.1 328.5,-190.1 335.5,-190.1"/>
</g>
</g>
</svg>
